<?xml version="1.0" encoding="utf-8"?>
<!-- Generator: Adobe Illustrator 27.0.1, SVG Export Plug-In . SVG Version: 6.00 Build 0)  -->
<svg version="1.1" id="Livello_1" xmlns="http://www.w3.org/2000/svg" xmlns:xlink="http://www.w3.org/1999/xlink" x="0px" y="0px"
     viewBox="0 0 1920 1080" style="enable-background:new 0 0 1920 1080;" xml:space="preserve">
<style type="text/css">
    .st0{fill:#0080FF;}
    .st1{fill:#AFBA1B;}
    .st2{fill:#8E7DFF;}
    .st3{fill:#FF5500;}
</style>
<g>
    <g>
        <path class="st0" d="M710.43,561.91c-47.77,0-67.71-28.76-67.71-92.76c0-8.81,5.57-11.6,12.06-11.6h30.61
            c6.49,0,8.81,3.71,8.35,12.99c-1.39,29.68,2.32,44.53,17.63,44.53c17.16,0,19.94-10.67,19.94-39.89
            c0-24.12-12.06-39.42-34.78-50.09c-33.86-15.77-53.34-43.6-52.88-85.34c0.47-59.83,29.22-80.71,72.35-80.71
            c46.85,0,67.25,25.97,67.25,87.2c0,8.81-6.49,11.6-12.06,11.6h-30.61c-6.5,0-9.28-3.71-8.81-12.06
            c1.86-27.37-0.93-39.89-16.7-39.89c-14.38,0-19.02,8.81-19.02,36.18c0,21.33,9.74,36.18,30.15,45.46
            c34.78,15.77,57.51,43.6,57.51,86.27C783.72,536.87,760.06,561.91,710.43,561.91z"/>
        <path class="st0" d="M955.78,559.13h-36.64c-5.1,0-8.35-1.86-9.28-7.88l-9.28-61.22h-44.53l-9.28,61.22
            c-0.93,6.03-4.17,7.88-9.28,7.88h-36.64c-4.64,0-8.35-3.25-8.35-8.35c0-4.18,1.86-11.6,2.79-17.16l51.95-263.45
            c0.93-5.57,4.17-8.35,9.27-8.35h43.6c5.1,0,8.35,2.78,9.28,8.35l51.95,263.45c0.93,5.57,2.78,12.99,2.78,17.16
            C964.13,555.88,960.42,559.13,955.78,559.13z M886.21,391.69c-1.39-10.67-5.1-44.53-5.1-48.24s-0.93-5.1-2.79-5.1
            c-1.86,0-2.78,1.39-2.78,5.1s-2.79,37.57-4.64,48.24l-9.28,58.91h33.39L886.21,391.69z"/>
        <path class="st0" d="M1068.94,450.13h-27.36v100.18c0,5.1-3.71,8.81-8.81,8.81h-40.82c-5.1,0-8.81-3.71-8.81-8.81V270.63
            c0-5.1,3.71-8.81,8.81-8.81h75.14c51.95,0,70.5,40.35,70.5,94.15C1137.59,410.71,1118.11,450.13,1068.94,450.13z M1053.17,303.57
            h-11.59v104.82h13.45c18.55,0,24.12-14.84,24.12-52.41C1079.15,318.87,1074.04,303.57,1053.17,303.57z"/>
        <path class="st0" d="M1264.2,559.13h-97.87c-5.1,0-8.81-3.71-8.81-8.81V270.63c0-5.1,3.71-8.81,8.81-8.81h96.47
            c5.1,0,8.81,3.71,8.81,8.81v29.68c0,5.1-3.71,8.81-8.81,8.81h-46.84v70.04h38.96c5.1,0,8.81,3.71,8.81,8.81v29.68
            c0,5.1-3.71,8.81-8.81,8.81h-38.96v85.34h48.24c5.1,0,8.81,3.71,8.81,8.81v29.68C1273.01,555.42,1269.3,559.13,1264.2,559.13z"/>
        <path class="st0" d="M1454.82,559.13h-33.86c-22.26,0-25.97-8.81-32-36.18l-16.23-72.82c-1.39-6.95-5.57-9.28-12.06-9.28h-7.42
            v109.46c0,5.1-3.71,8.81-8.81,8.81h-40.82c-5.1,0-8.81-3.71-8.81-8.81V270.63c0-5.1,3.71-8.81,8.81-8.81h74.67
            c51.95,0,70.96,32,70.96,85.34c0,44.99-12.98,74.67-43.6,83.49c16.7,5.57,21.8,13.45,27.83,36.18l18.09,66.79
            c1.39,5.1,2.78,7.42,6.03,9.28c3.25,1.86,5.57,3.25,5.57,7.89C1463.16,555.88,1459.92,559.13,1454.82,559.13z M1364.37,303.57
            h-11.13v97.4h13.45c18.55,0,24.12-11.6,24.12-48.7C1390.81,315.63,1385.24,303.57,1364.37,303.57z"/>
    </g>
    <g>
        <path class="st1" d="M100.56,891.89c-57.98,0-80.71-43.6-80.71-151.67s22.73-151.21,80.71-151.21c39.89,0,68.18,21.34,68.18,90.91
            c0,8.35-6.03,11.13-11.6,11.13H125.6c-6.49,0-8.81-5.1-8.35-13.91c1.86-29.68-2.79-41.75-16.7-41.75
            c-19.95,0-20.87,22.26-20.87,104.82c0,83.02,0.93,105.28,20.87,105.28c13.91,0,18.55-12.98,16.7-44.06
            c-0.46-8.81,1.86-13.92,8.35-13.92h31.54c6.03,0,11.6,3.25,11.6,11.13C168.74,869.63,140.44,891.89,100.56,891.89z"/>
        <path class="st1" d="M261.95,891.89c-45.92,0-78.38-24.12-78.38-151.67c0-127.55,32.46-151.21,78.38-151.21
            s78.39,23.66,78.39,151.21C340.34,867.77,307.87,891.89,261.95,891.89z M261.95,635.86c-13.45,0-18.55,6.95-18.55,104.36
            c0,97.4,5.1,104.82,18.55,104.82s18.55-7.42,18.55-104.82C280.5,642.82,275.4,635.86,261.95,635.86z"/>
        <path class="st1" d="M512.4,889.1h-36.18c-5.1,0-7.88-3.25-8.81-6.96l-34.79-123.37c-6.5-22.73-10.21-37.11-10.67-41.28
            c-0.46-3.71-0.93-4.18-2.32-4.18c-1.39,0-1.86,1.39-1.39,4.64c0.46,6.49,1.39,25.97,1.39,40.82v121.52c0,5.1-3.71,8.81-8.81,8.81
            h-35.25c-5.1,0-8.81-3.71-8.81-8.81V600.61c0-5.1,3.71-8.81,8.81-8.81h36.18c5.1,0,7.88,3.25,8.81,6.96l34.79,123.37
            c6.49,22.73,10.2,37.11,10.67,41.28c0.46,3.71,0.93,4.17,2.32,4.17s1.86-1.39,1.39-4.64c-0.47-6.5-1.39-25.97-1.39-40.82V600.61
            c0-5.1,3.71-8.81,8.81-8.81h35.25c5.1,0,8.81,3.71,8.81,8.81v279.68C521.21,885.39,517.5,889.1,512.4,889.1z"/>
        <path class="st1" d="M613.03,891.89c-47.77,0-67.71-28.76-67.71-92.76c0-8.81,5.57-11.6,12.06-11.6h30.61
            c6.49,0,8.81,3.71,8.35,12.99c-1.39,29.68,2.32,44.53,17.63,44.53c17.16,0,19.95-10.67,19.95-39.89
            c0-24.12-12.06-39.42-34.79-50.09c-33.86-15.77-53.34-43.6-52.88-85.34c0.46-59.83,29.22-80.71,72.35-80.71
            c46.84,0,67.26,25.97,67.26,87.2c0,8.81-6.5,11.6-12.06,11.6h-30.61c-6.49,0-9.27-3.71-8.81-12.06
            c1.86-27.37-0.93-39.89-16.7-39.89c-14.38,0-19.02,8.81-19.02,36.18c0,21.33,9.74,36.18,30.15,45.46
            c34.79,15.77,57.51,43.6,57.51,86.27C686.32,866.84,662.66,891.89,613.03,891.89z"/>
        <path class="st1" d="M786.49,892.35c-51.48,0-77.46-23.66-77.46-110.39V600.61c0-5.1,3.71-8.81,8.81-8.81h40.82
            c5.1,0,8.81,3.71,8.81,8.81v181.81c0,51.95,3.25,62.62,19.02,62.62c15.77,0,19.02-10.67,19.02-62.62V600.61
            c0-5.1,3.71-8.81,8.81-8.81h40.82c5.1,0,8.81,3.71,8.81,8.81v181.35C863.95,868.7,837.98,892.35,786.49,892.35z"/>
        <path class="st1" d="M1076.37,889.1h-35.71c-5.1,0-8.81-3.71-8.81-8.81V767.58c0-15.3,0.46-50.09,1.39-56.58
            c0.46-3.25,0-4.17-1.39-4.17s-1.86,0.46-2.32,4.17c-0.47,4.17-6.03,27.83-13.45,56.58l-11.13,44.53
            c-1.39,5.57-4.64,7.89-9.74,7.89h-8.35c-5.1,0-8.35-2.32-9.74-7.89l-11.13-44.53c-6.95-27.82-12.98-52.41-13.45-56.58
            c-0.46-3.71-0.93-4.17-2.32-4.17c-1.39,0-1.86,0.93-1.39,4.17c0.93,6.5,1.39,41.28,1.39,56.58v112.71c0,5.1-3.71,8.81-8.81,8.81
            h-35.71c-5.1,0-8.81-3.71-8.81-8.81V600.61c0-5.1,3.71-8.81,8.81-8.81h39.89c5.1,0,8.81,3.71,9.74,7.88l19.48,80.24
            c4.18,16.7,14.38,56.59,14.38,60.3s0.46,4.64,1.86,4.64c1.39,0,1.86-0.93,1.86-4.64s10.2-43.6,14.38-60.3l19.48-80.24
            c0.93-4.17,4.64-7.88,9.74-7.88h39.89c5.1,0,8.81,3.71,8.81,8.81v279.68C1085.18,885.39,1081.47,889.1,1076.37,889.1z"/>
        <path class="st1" d="M1267.45,889.1h-36.64c-5.1,0-8.35-1.86-9.28-7.88l-9.28-61.22h-44.53l-9.28,61.22
            c-0.93,6.03-4.17,7.88-9.28,7.88h-36.64c-4.64,0-8.35-3.25-8.35-8.35c0-4.18,1.86-11.6,2.78-17.16l51.95-263.45
            c0.93-5.57,4.18-8.35,9.28-8.35h43.6c5.1,0,8.35,2.78,9.28,8.35l51.95,263.45c0.93,5.57,2.79,12.99,2.79,17.16
            C1275.8,885.86,1272.09,889.1,1267.45,889.1z M1197.88,721.67c-1.39-10.67-5.1-44.53-5.1-48.24s-0.93-5.1-2.79-5.1
            c-1.86,0-2.78,1.39-2.78,5.1s-2.79,37.57-4.64,48.24l-9.28,58.91h33.39L1197.88,721.67z"/>
        <path class="st1" d="M1454.81,889.1h-33.86c-22.26,0-25.97-8.81-32-36.18l-16.23-72.82c-1.39-6.95-5.57-9.28-12.06-9.28h-7.42
            v109.46c0,5.1-3.71,8.81-8.81,8.81h-40.82c-5.1,0-8.81-3.71-8.81-8.81V600.61c0-5.1,3.71-8.81,8.81-8.81h74.67
            c51.95,0,70.97,32,70.97,85.34c0,44.99-12.99,74.67-43.6,83.49c16.7,5.57,21.8,13.45,27.83,36.18l18.09,66.79
            c1.39,5.1,2.78,7.42,6.03,9.28c3.25,1.86,5.57,3.25,5.57,7.89C1463.16,885.86,1459.92,889.1,1454.81,889.1z M1364.37,633.54
            h-11.13v97.4h13.45c18.55,0,24.12-11.6,24.12-48.7C1390.81,645.6,1385.24,633.54,1364.37,633.54z"/>
        <path class="st1" d="M1585.6,889.1h-97.87c-5.1,0-8.81-3.71-8.81-8.81V600.61c0-5.1,3.71-8.81,8.81-8.81h96.47
            c5.1,0,8.81,3.71,8.81,8.81v29.68c0,5.1-3.71,8.81-8.81,8.81h-46.84v70.04h38.96c5.1,0,8.81,3.71,8.81,8.81v29.68
            c0,5.1-3.71,8.81-8.81,8.81h-38.96v85.34h48.24c5.1,0,8.81,3.71,8.81,8.81v29.68C1594.41,885.39,1590.7,889.1,1585.6,889.1z"/>
    </g>
    <path class="st2" d="M1899.28,282.94v193.81c0,52.86-42.85,95.71-95.71,95.71h-30.01v-47.18h29.76c26.94,0,48.78-21.84,48.78-48.78
        V283.14c0-26.94-21.84-48.78-48.78-48.78h-29.76v-47.13h30.01C1856.43,187.24,1899.28,230.09,1899.28,282.94z"/>
    <path class="st2" d="M1773.57,609.11v68.08l-104.73-104.73h-63.86c-52.87,0-95.72-42.86-95.72-95.72V282.96
        c0-52.87,42.86-95.72,95.72-95.72h29.94v47.13h-29.76c-26.94,0-48.78,21.84-48.78,48.77v193.37c0,26.94,21.84,48.77,48.77,48.77
        h84.58L1773.57,609.11z"/>
    <g>
        <path class="st3" d="M1664.57,384.62c0,30.1,4.32,60.45,32.06,60.45c25.9,0,29.21-23.05,30.11-29.6h38.94
            c-0.66,5.93-5.54,63.43-69.6,63.43c-63.04,0-71.83-54.48-71.83-104.95c0-63.58,23.34-102.84,72.96-102.84
            c56.37,0,70.03,43.52,70.03,95.11c0,5.94-0.28,14.45-0.66,18.39H1664.57z M1727.21,354.74c0-24.56-3.97-50.08-30.11-50.08
            c-29.95,0-31.63,35.83-31.87,50.08H1727.21z"/>
    </g>
</g>
</svg>
